<?xml version="1.0" encoding="UTF-8" standalone="no"?>
<svg width="46px" height="46px" viewBox="0 0 46 46" version="1.1" xmlns="http://www.w3.org/2000/svg" xmlns:xlink="http://www.w3.org/1999/xlink">
    <!-- Generator: Sketch 3.8.3 (29802) - http://www.bohemiancoding.com/sketch -->
    <title>Page 1</title>
    <desc>Created with Sketch.</desc>
    <defs></defs>
    <g id="Page-1" stroke="none" stroke-width="1" fill="none" fill-rule="evenodd">
        <path d="M23.0099339,0 C10.3336503,0 0,10.3137189 0,22.9900661 C0,35.6663497 10.3336503,46 23.0099339,46 C35.6863446,46 46,35.6663497 46,22.9900661 C46,10.3137189 35.6863446,0 23.0099339,0 L23.0099339,0 Z M23.0099339,4.3440851 C33.3378714,4.3440851 41.6559149,12.6621286 41.6559149,22.9900661 C41.6559149,33.31794 33.3378714,41.6558514 23.0099339,41.6558514 C12.6821235,41.6558514 4.3440851,33.31794 4.3440851,22.9900661 C4.3440851,12.6621286 12.6821235,4.3440851 23.0099339,4.3440851 L23.0099339,4.3440851 Z M13.4166667,22.5206847 C13.4166667,23.8350795 14.3782891,24.9166667 15.5469595,24.9166667 C15.5804727,24.9166667 15.6139858,24.9157575 15.647499,24.9140092 L30.3949676,24.9140092 C30.4149263,24.9146386 30.4348849,24.9149883 30.4549058,24.9149883 C31.6225192,24.9149883 32.5833333,23.8343103 32.5833333,22.5210344 C32.5833333,21.2077585 31.6225192,20.1270805 30.4549058,20.1270805 C30.4348849,20.1270805 30.4149263,20.1273602 30.3949676,20.1279896 L15.647499,20.1279896 C15.5763068,20.1240035 15.5049903,20.1240035 15.4337982,20.1279896 C14.3093975,20.1952654 13.4166667,21.2541942 13.4166667,22.5206847 Z" fill="#FFFFFF"></path>
    </g>
</svg>