<?xml version="1.0" encoding="UTF-8" standalone="no"?>
<svg width="46px" height="46px" viewBox="0 0 46 46" version="1.1" xmlns="http://www.w3.org/2000/svg" xmlns:xlink="http://www.w3.org/1999/xlink">
    <!-- Generator: Sketch 3.8.3 (29802) - http://www.bohemiancoding.com/sketch -->
    <title>Group 14</title>
    <desc>Created with Sketch.</desc>
    <defs></defs>
    <g id="Page-1" stroke="none" stroke-width="1" fill="none" fill-rule="evenodd">
        <g id="Group-14" fill="#FFFFFF">
            <path d="M23.0099339,0 C10.3336503,0 0,10.3137189 0,22.9900661 C0,35.6663497 10.3336503,46 23.0099339,46 C35.6863446,46 46,35.6663497 46,22.9900661 C46,10.3137189 35.6863446,0 23.0099339,0 L23.0099339,0 Z M23.0099339,4.3440851 C33.3378714,4.3440851 41.6559149,12.6621286 41.6559149,22.9900661 C41.6559149,33.31794 33.3378714,41.6558514 23.0099339,41.6558514 C12.6821235,41.6558514 4.3440851,33.31794 4.3440851,22.9900661 C4.3440851,12.6621286 12.6821235,4.3440851 23.0099339,4.3440851 L23.0099339,4.3440851 Z M21.0026575,24.9140092 L15.647499,24.9140092 C15.6139858,24.9157575 15.5804727,24.9166667 15.5469595,24.9166667 C14.3782891,24.9166667 13.4166667,23.8350795 13.4166667,22.5206847 C13.4166667,21.2541942 14.3093975,20.1952654 15.4337982,20.1279896 C15.5049903,20.1240035 15.5763068,20.1240035 15.647499,20.1279896 L21.0026575,20.1279896 L21.0026575,15.2308323 C21.0009091,15.1973192 21,15.163806 21,15.1302928 C21,13.9616225 22.0815871,13 23.3959819,13 C24.6624725,13 25.7214013,13.8927309 25.788677,15.0171315 C25.7926632,15.0883237 25.7926632,15.1596402 25.788677,15.2308323 L25.788677,20.1279896 L30.3949676,20.1279896 C30.4149263,20.1273602 30.4348849,20.1270805 30.4549058,20.1270805 C31.6225192,20.1270805 32.5833333,21.2077585 32.5833333,22.5210344 C32.5833333,23.8343103 31.6225192,24.9149883 30.4549058,24.9149883 C30.4348849,24.9149883 30.4149263,24.9146386 30.3949676,24.9140092 L25.788677,24.9140092 L25.788677,29.9783009 C25.7893064,29.9982596 25.7895862,30.0182183 25.7895862,30.0382391 C25.7895862,31.2058525 24.7089082,32.1666667 23.3956323,32.1666667 C22.0823564,32.1666667 21.0016784,31.2058525 21.0016784,30.0382391 C21.0016784,30.0182183 21.0020281,29.9982596 21.0026575,29.9783009 L21.0026575,24.9140092 Z" id="Combined-Shape"></path>
        </g>
    </g>
</svg>